<?xml version="1.0" encoding="UTF-8" standalone="no"?>
<!DOCTYPE svg PUBLIC "-//W3C//DTD SVG 1.1//EN" "http://www.w3.org/Graphics/SVG/1.1/DTD/svg11.dtd">
<svg xmlns="http://www.w3.org/2000/svg" version="1.1" viewBox="0.00 0.00 400.00 150.00">
<path fill="#ffffff" d="
  M 232.28 72.85
  L 252.29 16.41
  Q 252.48 15.87 252.98 15.59
  C 256.01 13.88 263.52 14.77 261.66 20.01
  Q 248.52 57.04 235.46 94.09
  Q 235.29 94.58 234.81 94.75
  Q 229.74 96.59 227.97 91.51
  Q 215.25 55.10 202.28 18.77
  C 200.86 14.80 208.56 14.24 210.59 15.44
  Q 212.31 16.46 213.35 19.37
  Q 222.91 46.09 232.17 72.85
  A 0.06 0.06 0.0 0 0 232.28 72.85
  Z"
/>
<path fill="#ffffff" d="
  M 324.15 89.94
  C 297.61 71.69 297.87 24.61 334.19 16.93
  C 364.54 10.51 384.51 43.21 378.25 68.99
  C 372.66 91.98 343.78 103.44 324.15 89.94
  Z
  M 357.04 75.39
  C 357.30 76.89 356.89 79.02 357.43 80.85
  Q 357.62 81.49 358.18 81.13
  C 380.12 66.99 369.49 29.56 344.48 26.31
  Q 340.23 25.76 338.05 26.61
  C 333.32 28.46 334.39 36.55 336.55 39.95
  C 343.74 51.30 354.79 62.13 357.04 75.39
  Z
  M 331.92 46.82
  C 329.25 42.77 326.15 35.32 327.72 30.53
  Q 327.90 29.98 327.40 30.27
  C 303.00 44.78 317.17 90.03 345.65 85.14
  Q 346.14 85.05 346.49 84.68
  C 350.32 80.52 349.70 74.11 346.81 69.64
  Q 339.42 58.17 331.92 46.82
  Z"
/>
<path fill="#ffffff" d="
  M 109.90 65.04
  C 112.12 75.78 121.69 82.80 131.94 85.01
  C 137.63 86.23 136.63 93.45 132.02 94.71
  Q 129.97 95.27 126.60 94.31
  Q 109.21 89.34 102.59 73.21
  C 87.89 37.33 119.70 7.01 155.11 19.04
  Q 159.59 20.56 162.74 24.16
  A 2.13 2.12 49.5 0 1 162.51 27.19
  Q 159.86 29.40 157.11 31.32
  Q 137.93 44.68 118.67 57.91
  Q 113.28 61.62 110.21 64.14
  Q 109.79 64.49 109.90 65.04
  Z
  M 109.63 49.74
  Q 109.50 50.83 109.55 50.95
  A 0.79 0.49 62.3 0 0 110.41 51.46
  L 144.90 27.60
  A 0.35 0.35 0.0 0 0 144.68 26.96
  C 141.56 27.15 138.09 26.66 135.43 26.88
  C 123.04 27.91 111.20 36.67 109.63 49.74
  Z"
/>
<path fill="#ffffff" d="
  M 29.87 24.70
  C 34.40 21.94 47.89 16.26 52.61 20.21
  Q 55.65 22.75 53.45 27.98
  Q 53.25 28.45 52.76 28.56
  C 44.66 30.46 30.04 31.26 30.02 42.72
  Q 29.98 65.86 30.00 89.00
  Q 30.00 91.82 29.24 93.65
  Q 29.03 94.15 28.50 94.29
  Q 25.12 95.16 21.57 94.71
  Q 20.01 94.51 20.00 92.94
  Q 19.99 58.85 20.00 24.90
  C 20.00 15.69 30.57 17.97 29.51 24.45
  Q 29.43 24.96 29.87 24.70
  Z"
/>
<path fill="#ffffff" d="
  M 26.76 115.99
  Q 26.91 118.71 27.80 115.83
  Q 28.65 113.09 30.15 112.90
  Q 30.98 112.79 30.90 113.62
  C 30.61 116.90 29.28 119.80 29.19 122.88
  C 29.11 125.41 29.78 132.39 27.00 133.22
  A 0.63 0.63 0.0 0 1 26.19 132.60
  Q 26.32 127.08 25.64 121.69
  C 25.30 119.10 23.67 116.70 22.96 114.03
  Q 22.79 113.38 23.45 113.22
  L 24.48 112.99
  Q 25.09 112.85 25.52 113.30
  Q 26.68 114.52 26.76 115.99
  Z"
/>
<rect fill="#ffffff" x="-1.49" y="-9.97" transform="translate(211.52,122.94) rotate(-0.2)" width="2.98" height="19.94" rx="1.24"/>
<rect fill="#ffffff" x="-1.48" y="-10.04" transform="translate(223.48,122.99) rotate(0.2)" width="2.96" height="20.08" rx="1.41"/>
<path fill="#ffffff" d="
  M 267.98 114.03
  Q 268.58 112.85 270.11 113.00
  A 0.91 0.89 -87.5 0 1 270.91 113.89
  L 270.94 131.85
  A 1.13 1.12 4.2 0 1 269.65 132.96
  L 265.08 132.27
  A 1.27 1.26 4.2 0 1 264.00 131.02
  L 264.00 116.66
  Q 264.00 115.91 264.70 115.64
  L 267.25 114.68
  Q 267.75 114.49 267.98 114.03
  Z
  M 267.9802 118.1711
  A 0.27 0.27 0.0 0 0 267.7107 117.9006
  L 266.9907 117.8994
  A 0.27 0.27 0.0 0 0 266.7202 118.1689
  L 266.6998 129.9089
  A 0.27 0.27 0.0 0 0 266.9693 130.1794
  L 267.6893 130.1806
  A 0.27 0.27 0.0 0 0 267.9598 129.9111
  L 267.9802 118.1711
  Z"
/>
<path fill="#ffffff" d="
  M 328.18 118.36
  C 328.04 120.54 329.11 133.46 325.82 132.93
  A 1.10 1.09 -83.7 0 1 324.90 131.77
  Q 325.46 123.84 324.26 115.98
  Q 324.18 115.44 324.51 115.01
  C 326.89 111.91 333.34 113.41 332.18 116.02
  Q 331.98 116.50 331.49 116.65
  L 328.84 117.52
  Q 328.23 117.72 328.18 118.36
  Z"
/>
<path fill="#ffffff" d="
  M 342.64 118.61
  Q 343.44 125.16 342.70 131.70
  Q 342.63 132.32 342.07 132.59
  L 341.65 132.79
  A 1.05 1.05 0.0 0 1 340.15 131.89
  L 339.42 115.66
  Q 339.40 115.15 339.70 114.73
  C 341.70 111.96 347.51 112.63 345.81 116.38
  Q 345.56 116.94 345.00 117.16
  L 343.04 117.93
  Q 342.58 118.11 342.64 118.61
  Z"
/>
<path fill="#ffffff" d="
  M 58.17 130.18
  L 58.56 129.95
  Q 59.00 129.69 59.00 129.18
  L 59.00 115.62
  Q 59.00 114.98 59.63 114.99
  L 61.36 115.02
  Q 62.00 115.03 62.00 115.67
  L 62.00 132.37
  Q 62.00 133.27 61.11 133.11
  L 55.87 132.15
  A 1.06 1.06 0.0 0 1 55.00 131.11
  L 55.00 116.01
  Q 55.00 115.52 55.46 115.34
  C 59.63 113.75 57.77 127.98 57.53 129.77
  Q 57.42 130.62 58.17 130.18
  Z"
/>
<path fill="#ffffff" d="
  M 73.99 117.80
  A 0.70 0.69 -78.3 0 0 73.02 118.44
  L 72.97 132.46
  Q 72.97 133.06 72.36 133.02
  Q 70.05 132.87 70.02 130.43
  Q 69.93 123.71 70.03 116.97
  A 1.79 1.78 85.1 0 1 71.48 115.24
  C 80.38 113.54 78.74 121.42 75.58 119.74
  Q 75.15 119.51 75.03 119.04
  Q 74.78 118.14 73.99 117.80
  Z"
/>
<path fill="#ffffff" d="
  M 103.37 133.75
  Q 102.60 134.62 101.47 134.99
  A 1.13 1.12 -8.9 0 1 100.00 133.92
  L 100.00 115.41
  Q 100.00 114.80 100.60 114.87
  L 107.33 115.65
  Q 107.97 115.72 107.98 116.37
  Q 108.04 122.10 108.01 127.73
  C 108.00 130.73 107.24 132.50 104.26 133.21
  Q 103.73 133.33 103.37 133.75
  Z
  M 104.97 118.90
  A 1.01 1.01 0.0 0 0 103.96 117.89
  L 103.90 117.89
  A 1.01 1.01 0.0 0 0 102.89 118.90
  L 102.89 129.14
  A 1.01 1.01 0.0 0 0 103.90 130.15
  L 103.96 130.15
  A 1.01 1.01 0.0 0 0 104.97 129.14
  L 104.97 118.90
  Z"
/>
<path fill="#ffffff" d="
  M 120.02 130.11
  Q 121.64 129.49 120.91 127.48
  A 0.77 0.77 0.0 0 1 122.13 126.63
  C 125.96 129.83 122.94 133.22 119.25 132.73
  C 114.62 132.11 115.99 123.56 115.98 120.18
  C 115.97 111.37 127.01 114.69 123.44 122.08
  Q 123.18 122.61 122.60 122.70
  L 119.65 123.16
  Q 118.99 123.26 119.00 123.93
  L 119.01 129.41
  Q 119.01 130.49 120.02 130.11
  Z
  M 121.09 119.12
  A 1.09 1.09 0.0 0 0 120.00 118.03
  A 1.09 1.09 0.0 0 0 118.91 119.12
  A 1.09 1.09 0.0 0 0 120.00 120.21
  A 1.09 1.09 0.0 0 0 121.09 119.12
  Z"
/>
<path fill="#ffffff" d="
  M 135.51 117.66
  A 0.43 0.43 0.0 0 0 134.99 118.09
  C 135.01 120.27 135.97 132.81 133.23 132.88
  A 1.20 1.19 -0.7 0 1 132.00 131.69
  L 132.00 115.70
  Q 132.00 115.04 132.66 115.02
  C 135.82 114.91 140.92 114.61 138.56 119.92
  Q 138.34 120.42 137.84 120.19
  C 136.70 119.65 137.34 118.07 135.51 117.66
  Z"
/>
<path fill="#ffffff" d="
  M 151.26 130.02
  A 0.77 0.77 0.0 0 0 152.00 129.25
  L 152.00 123.57
  Q 152.00 122.98 151.44 122.78
  L 148.18 121.61
  Q 147.75 121.46 147.50 121.07
  C 144.41 116.18 153.08 111.99 154.76 117.73
  Q 155.16 119.11 154.20 119.63
  Q 153.73 119.89 153.30 119.55
  L 151.24 117.92
  Q 150.43 117.28 150.13 118.27
  L 149.89 119.08
  Q 149.73 119.59 150.25 119.73
  L 154.08 120.79
  Q 154.62 120.93 154.74 121.48
  C 155.41 124.45 155.90 129.66 153.48 131.86
  C 151.32 133.81 146.05 132.14 147.17 128.36
  Q 147.30 127.90 147.77 127.89
  L 149.32 127.84
  Q 150.02 127.81 150.00 128.51
  Q 149.97 130.08 151.26 130.02
  Z"
/>
<path fill="#ffffff" d="
  M 182.22 118.00
  L 181.50 118.00
  Q 181.00 118.00 181.00 118.50
  L 181.00 132.29
  Q 181.00 132.92 180.38 132.99
  Q 179.22 133.13 178.46 132.00
  Q 178.16 131.56 178.15 131.03
  L 177.93 115.68
  Q 177.92 114.76 178.84 114.87
  L 185.36 115.69
  Q 186.00 115.77 186.00 116.41
  L 186.00 132.19
  Q 186.00 132.87 185.32 132.90
  L 183.72 132.96
  Q 183.00 132.99 183.00 132.27
  L 183.00 118.78
  A 0.78 0.78 0.0 0 0 182.22 118.00
  Z"
/>
<path fill="#ffffff" d="
  M 199.00 118.61
  A 0.65 0.65 0.0 0 0 198.10 118.01
  L 195.67 119.03
  Q 194.55 119.50 194.15 118.35
  C 192.81 114.49 201.96 113.38 201.99 118.18
  Q 202.03 124.09 201.96 130.00
  C 201.91 134.49 197.08 133.52 194.89 131.58
  Q 194.50 131.24 194.41 130.73
  Q 193.78 127.39 194.01 124.01
  C 194.32 119.43 194.69 120.71 198.60 119.94
  Q 199.00 119.86 199.00 119.45
  L 199.00 118.61
  Z
  M 198.9954 123.8781
  A 0.85 0.85 0.0 0 0 198.1439 123.0296
  L 197.6839 123.0304
  A 0.85 0.85 0.0 0 0 196.8354 123.8819
  L 196.8446 129.1619
  A 0.85 0.85 0.0 0 0 197.6961 130.0104
  L 198.1561 130.0096
  A 0.85 0.85 0.0 0 0 199.0046 129.1581
  L 198.9954 123.8781
  Z"
/>
<path fill="#ffffff" d="
  M 236.31 117.97
  L 234.75 118.01
  Q 233.97 118.03 233.99 117.25
  L 234.02 115.76
  Q 234.04 115.00 234.80 115.00
  L 239.29 115.00
  A 0.88 0.87 -83.2 0 1 240.14 116.08
  L 236.99 129.13
  Q 236.82 129.84 237.55 129.92
  L 238.94 130.06
  Q 239.46 130.11 239.76 130.53
  C 241.80 133.39 235.01 133.02 233.86 132.46
  Q 233.30 132.19 233.44 131.59
  L 236.60 118.33
  Q 236.69 117.96 236.31 117.97
  Z"
/>
<path fill="#ffffff" d="
  M 252.59 130.02
  Q 253.05 129.85 252.75 129.46
  Q 251.54 127.87 253.54 127.14
  Q 254.66 126.73 255.01 127.88
  Q 255.58 129.80 254.69 131.64
  Q 254.46 132.13 253.94 132.31
  C 245.59 135.16 247.93 122.23 248.06 116.48
  Q 248.08 115.86 248.69 115.73
  L 252.63 114.94
  A 1.98 1.98 0.0 0 1 255.00 116.89
  L 254.99 122.35
  Q 254.99 123.00 254.34 123.00
  L 251.56 123.00
  Q 251.10 123.00 251.07 123.46
  C 250.98 124.61 250.12 130.93 252.59 130.02
  Z
  M 252.1687 120.2899
  A 1.20 0.93 79.5 0 0 252.8644 118.9405
  A 1.20 0.93 79.5 0 0 251.7313 117.9301
  A 1.20 0.93 79.5 0 0 251.0356 119.2795
  A 1.20 0.93 79.5 0 0 252.1687 120.2899
  Z"
/>
<path fill="#ffffff" d="
  M 297.62 129.96
  Q 298.28 129.36 297.97 128.30
  Q 297.83 127.79 298.24 127.45
  C 301.40 124.93 303.09 132.21 297.86 132.75
  Q 295.72 132.97 294.69 131.83
  C 293.39 130.39 294.00 119.58 294.00 117.11
  A 1.93 1.92 -5.8 0 1 295.56 115.21
  Q 298.16 114.70 300.45 116.14
  Q 300.89 116.42 300.91 116.94
  L 301.04 120.29
  Q 301.07 120.96 300.40 120.97
  L 298.91 121.01
  Q 298.30 121.03 298.20 120.42
  L 297.89 118.39
  Q 297.82 117.94 297.37 117.98
  Q 297.20 118.00 297.02 118.00
  Q 296.78 118.00 296.79 118.23
  L 297.08 129.73
  A 0.32 0.32 0.0 0 0 297.62 129.96
  Z"
/>
<path fill="#ffffff" d="
  M 317.0621 129.1241
  A 3.84 3.84 0.0 0 1 313.2088 132.9506
  L 312.8088 132.9492
  A 3.84 3.84 0.0 0 1 308.9822 129.0959
  L 309.0179 118.8759
  A 3.84 3.84 0.0 0 1 312.8712 115.0494
  L 313.2712 115.0508
  A 3.84 3.84 0.0 0 1 317.0978 118.9041
  L 317.0621 129.1241
  Z
  M 314.0094 118.5918
  A 0.59 0.59 0.0 0 0 313.4205 118.0007
  L 312.6005 117.9993
  A 0.59 0.59 0.0 0 0 312.0094 118.5883
  L 311.9906 129.4082
  A 0.59 0.59 0.0 0 0 312.5795 129.9993
  L 313.3995 130.0007
  A 0.59 0.59 0.0 0 0 313.9906 129.4117
  L 314.0094 118.5918
  Z"
/>
<path fill="#ffffff" d="
  M 357.47 129.78
  Q 358.46 130.39 358.82 129.40
  Q 358.99 128.91 358.98 128.38
  Q 358.96 127.61 359.39 126.96
  Q 359.83 126.29 360.40 126.86
  L 361.83 128.29
  Q 362.24 128.70 362.11 129.27
  C 361.05 133.91 354.04 134.58 354.01 128.13
  C 354.00 125.51 353.31 118.45 354.82 116.45
  C 356.08 114.78 358.58 114.56 360.32 115.69
  C 363.27 117.61 362.95 124.15 357.65 122.85
  Q 357.01 122.70 357.01 123.35
  L 357.00 128.93
  Q 356.99 129.49 357.47 129.78
  Z
  M 359.08 119.09
  A 1.11 1.11 0.0 0 0 357.97 117.98
  A 1.11 1.11 0.0 0 0 356.86 119.09
  A 1.11 1.11 0.0 0 0 357.97 120.20
  A 1.11 1.11 0.0 0 0 359.08 119.09
  Z"
/>
<path fill="#ffffff" d="
  M 373.94 129.74
  Q 374.24 129.24 373.83 128.47
  Q 373.41 127.68 374.26 127.40
  L 375.74 126.92
  Q 376.29 126.74 376.52 127.27
  C 378.70 132.30 374.23 134.09 370.59 131.85
  Q 370.20 131.61 370.17 131.15
  Q 369.73 122.14 370.02 117.49
  Q 370.22 114.43 373.57 114.83
  C 378.59 115.42 378.30 123.50 373.70 123.06
  Q 372.99 122.99 373.00 123.71
  L 373.01 129.69
  Q 373.01 131.27 373.94 129.74
  Z
  M 373.5315 120.2689
  A 1.18 0.55 87.5 0 0 374.0295 119.0660
  A 1.18 0.55 87.5 0 0 373.4285 117.9111
  A 1.18 0.55 87.5 0 0 372.9305 119.1140
  A 1.18 0.55 87.5 0 0 373.5315 120.2689
  Z"
/>
<path fill="#ffffff" d="
  M 46.1096 130.3408
  A 2.26 2.26 0.0 0 1 43.8814 132.6321
  L 41.4416 132.6662
  A 2.26 2.26 0.0 0 1 39.1503 130.4380
  L 38.9704 117.5592
  A 2.26 2.26 0.0 0 1 41.1986 115.2679
  L 43.6384 115.2338
  A 2.26 2.26 0.0 0 1 45.9297 117.4620
  L 46.1096 130.3408
  Z
  M 43.60 129.31
  C 42.52 125.78 42.85 121.85 43.60 118.24
  A 0.40 0.39 -1.5 0 0 43.11 117.78
  L 42.83 117.85
  Q 42.26 118.00 42.17 118.58
  C 41.99 119.84 40.81 130.71 43.24 129.99
  Q 43.76 129.83 43.60 129.31
  Z"
/>
<path fill="#ffffff" d="
  M 170.0016 130.6039
  A 2.00 2.00 0.0 0 1 168.0051 132.6074
  L 165.0451 132.6126
  A 2.00 2.00 0.0 0 1 163.0416 130.6161
  L 163.0184 117.2761
  A 2.00 2.00 0.0 0 1 165.0149 115.2726
  L 167.9749 115.2674
  A 2.00 2.00 0.0 0 1 169.9784 117.2639
  L 170.0016 130.6039
  Z
  M 167.0091 118.1760
  A 0.26 0.26 0.0 0 0 166.7473 117.9178
  L 166.0874 117.9225
  A 0.26 0.26 0.0 0 0 165.8292 118.1843
  L 165.9109 129.8840
  A 0.26 0.26 0.0 0 0 166.1727 130.1422
  L 166.8326 130.1375
  A 0.26 0.26 0.0 0 0 167.0908 129.8757
  L 167.0091 118.1760
  Z"
/>
</svg>
